<svg xmlns="http://www.w3.org/2000/svg" viewBox="0 0 100 100">
  <circle cx="50" cy="50" r="48" fill="#E8A0D0"/>
  <g fill="none" stroke="#0A0A0A" stroke-width="3" stroke-linecap="round">
    <!-- Center circle -->
    <circle cx="50" cy="50" r="8" fill="#0A0A0A"/>
    <!-- Radiating lines -->
    <line x1="50" y1="18" x2="50" y2="35"/>
    <line x1="50" y1="65" x2="50" y2="82"/>
    <line x1="18" y1="50" x2="35" y2="50"/>
    <line x1="65" y1="50" x2="82" y2="50"/>
    <line x1="27" y1="27" x2="39" y2="39"/>
    <line x1="61" y1="61" x2="73" y2="73"/>
    <line x1="73" y1="27" x2="61" y2="39"/>
    <line x1="39" y1="61" x2="27" y2="73"/>
    <!-- Additional rays for starburst effect -->
    <line x1="50" y1="12" x2="50" y2="22"/>
    <line x1="50" y1="78" x2="50" y2="88"/>
    <line x1="12" y1="50" x2="22" y2="50"/>
    <line x1="78" y1="50" x2="88" y2="50"/>
    <line x1="22" y1="22" x2="30" y2="30"/>
    <line x1="70" y1="70" x2="78" y2="78"/>
    <line x1="78" y1="22" x2="70" y2="30"/>
    <line x1="30" y1="70" x2="22" y2="78"/>
  </g>
</svg>


