<svg xmlns="http://www.w3.org/2000/svg" viewBox="0 0 120 120">
  <!-- Pink circle background -->
  <circle cx="60" cy="60" r="56" fill="#E8A0D0"/>
  
  <!-- Grungy texture overlay (subtle) -->
  <defs>
    <filter id="grain">
      <feTurbulence type="fractalNoise" baseFrequency="0.9" numOctaves="4" result="noise"/>
      <feColorMatrix type="saturate" values="0"/>
      <feBlend in="SourceGraphic" in2="noise" mode="multiply"/>
    </filter>
  </defs>
  
  <!-- Central circle -->
  <circle cx="60" cy="60" r="10" fill="#0A0A0A"/>
  
  <!-- Radiating lines - hand-drawn asymmetric style -->
  <g stroke="#0A0A0A" stroke-linecap="round" fill="none">
    <!-- Main rays - varying thickness for hand-drawn feel -->
    <!-- Top -->
    <line x1="60" y1="18" x2="60" y2="44" stroke-width="4"/>
    <line x1="56" y1="12" x2="58" y2="32" stroke-width="3"/>
    
    <!-- Top right -->
    <line x1="85" y1="30" x2="72" y2="46" stroke-width="4"/>
    <line x1="92" y1="35" x2="76" y2="50" stroke-width="3"/>
    <line x1="88" y1="24" x2="78" y2="40" stroke-width="2.5"/>
    
    <!-- Right -->
    <line x1="102" y1="60" x2="76" y2="60" stroke-width="4"/>
    <line x1="108" y1="56" x2="82" y2="58" stroke-width="3"/>
    <line x1="106" y1="66" x2="80" y2="64" stroke-width="2.5"/>
    
    <!-- Bottom right -->
    <line x1="88" y1="88" x2="72" y2="74" stroke-width="4"/>
    <line x1="95" y1="92" x2="78" y2="76" stroke-width="3"/>
    
    <!-- Bottom -->
    <line x1="60" y1="102" x2="60" y2="76" stroke-width="4"/>
    <line x1="64" y1="108" x2="62" y2="82" stroke-width="3"/>
    <line x1="54" y1="105" x2="56" y2="80" stroke-width="2.5"/>
    
    <!-- Bottom left -->
    <line x1="32" y1="88" x2="48" y2="74" stroke-width="4"/>
    <line x1="25" y1="94" x2="44" y2="78" stroke-width="3"/>
    <line x1="28" y1="82" x2="46" y2="70" stroke-width="2.5"/>
    
    <!-- Left -->
    <line x1="18" y1="60" x2="44" y2="60" stroke-width="4"/>
    <line x1="14" y1="54" x2="38" y2="56" stroke-width="3"/>
    <line x1="12" y1="66" x2="36" y2="64" stroke-width="2.5"/>
    
    <!-- Top left -->
    <line x1="32" y1="32" x2="48" y2="48" stroke-width="4"/>
    <line x1="24" y1="26" x2="42" y2="44" stroke-width="3"/>
    <line x1="28" y1="38" x2="44" y2="52" stroke-width="2.5"/>
    
    <!-- Extra accent lines for asymmetry -->
    <line x1="70" y1="20" x2="68" y2="38" stroke-width="2"/>
    <line x1="98" y1="48" x2="78" y2="54" stroke-width="2"/>
    <line x1="40" y1="100" x2="48" y2="78" stroke-width="2"/>
    <line x1="22" y1="42" x2="40" y2="50" stroke-width="2"/>
  </g>
</svg>

